<svg width="36" height="43" viewBox="0 0 36 43" fill="none" xmlns="http://www.w3.org/2000/svg">
<path fill-rule="evenodd" clip-rule="evenodd" d="M36 2.09112V31.2227C36 32.2563 35.231 33.1167 34.2247 33.284V38.8477C35.231 39.0149 35.9999 39.8753 35.9999 40.909C35.9999 42.062 35.0433 43 33.8676 43H6.6192C2.96936 43 0 40.088 0 36.5087V6.49131C0 2.91198 2.96936 0 6.6192 0H33.8676C35.0434 0 36 0.93802 36 2.09112ZM33.8677 41.7402C34.3352 41.7402 34.7154 41.3673 34.7154 40.9089C34.7154 40.4504 34.3351 40.0775 33.8676 40.0775H15.5337C15.1789 40.0775 14.8914 39.7955 14.8914 39.4476C14.8914 39.0998 15.1789 38.8178 15.5337 38.8178H32.9401V33.3138H7.07086C5.52345 33.3138 4.26464 34.5483 4.26464 36.0658C4.26464 37.5832 5.52353 38.8178 7.07086 38.8178H13.1358C13.4906 38.8178 13.7781 39.0998 13.7781 39.4476C13.7781 39.7955 13.4906 40.0775 13.1358 40.0775H7.07086C4.81522 40.0775 2.98006 38.2778 2.98006 36.0658C2.98006 33.8537 4.81522 32.054 7.07086 32.054H7.20591V12.2226C7.20591 11.8748 7.4934 11.5928 7.8482 11.5928C8.203 11.5928 8.49049 11.8748 8.49049 12.2226V32.054H33.8676C34.3351 32.054 34.7153 31.6811 34.7153 31.2227V2.09112C34.7153 1.63265 34.3351 1.25976 33.8676 1.25976H8.49049V9.87108C8.49049 10.2189 8.203 10.501 7.8482 10.501C7.4934 10.501 7.20591 10.2189 7.20591 9.87108V1.25976H6.6192C3.67776 1.25976 1.28458 3.60662 1.28458 6.49131V36.5086C1.28458 39.3933 3.67767 41.7402 6.6192 41.7402H33.8677Z" fill="#FF7E00"/>
<path fill-rule="evenodd" clip-rule="evenodd" d="M13.6429 18C13.5668 18 13.4895 17.9865 13.4142 17.9579C13.0824 17.8322 12.9159 17.4627 13.0423 17.1326L16.7111 7.54883C16.7129 7.54398 16.7148 7.53913 16.7168 7.53428L16.7168 7.53424C16.8501 7.21003 17.1639 7.00026 17.516 7H17.5168C17.8685 7 18.1822 7.20909 18.3161 7.53279C18.3166 7.53411 18.3172 7.53543 18.3177 7.53675C18.3195 7.54124 18.3213 7.54573 18.323 7.55028L21.9584 17.1344C22.0838 17.4649 21.9161 17.8339 21.584 17.9586C21.2519 18.0834 20.8809 17.9166 20.7556 17.586L20.0072 15.6129H14.9998L14.2437 17.5878C14.146 17.8431 13.9018 18 13.6429 18ZM19.522 14.3339L17.5149 9.04275L15.4894 14.3339H19.522Z" fill="#FF7E00"/>
<path fill-rule="evenodd" clip-rule="evenodd" d="M28.6823 15.9671C28.0834 16.3996 27.3248 16.6591 26.5 16.6591C24.5701 16.6591 23 15.2419 23 13.5C23 11.7581 24.5701 10.341 26.5 10.341C27.3248 10.341 28.0834 10.6005 28.6823 11.033V10.5947C28.6823 10.2662 28.9772 10 29.3412 10C29.7051 10 30 10.2662 30 10.5947V16.4053C30 16.7338 29.7051 17 29.3412 17C28.9772 17 28.6823 16.7338 28.6823 16.4053V15.9671ZM28.6823 13.5C28.6823 12.4139 27.7033 11.5303 26.5 11.5303C25.2966 11.5303 24.3177 12.414 24.3177 13.5001C24.3177 14.5862 25.2966 15.4697 26.5 15.4697C27.7033 15.4697 28.6823 14.5861 28.6823 13.5Z" fill="#FF7E00"/>
<path d="M13.6414 22H30.3586C30.7129 22 31 21.7761 31 21.5C31 21.2239 30.7129 21 30.3586 21H13.6414C13.2871 21 13 21.2239 13 21.5C13 21.7761 13.2871 22 13.6414 22Z" fill="#FF7E00"/>
<path d="M27.3333 25H16.6667C16.2984 25 16 25.2239 16 25.5C16 25.7761 16.2984 26 16.6667 26H27.3333C27.7016 26 28 25.7761 28 25.5C28 25.2239 27.7015 25 27.3333 25Z" fill="#FF7E00"/>
</svg>
