<svg width="36" height="42" viewBox="0 0 36 42" fill="none" xmlns="http://www.w3.org/2000/svg">
<path fill-rule="evenodd" clip-rule="evenodd" d="M35.375 0H5.97262C5.62746 0 5.34764 0.277697 5.34764 0.620253V6.27058H0.624975C0.279893 6.27078 0.000197021 6.54836 0 6.89084V41.3797C0 41.7223 0.279811 42 0.624975 42H30.0302C30.3754 42 30.6552 41.7223 30.6552 41.3797V35.7301H35.375C35.7202 35.7301 36 35.4524 36 35.1099V0.620253C36.0001 0.455723 35.9343 0.297905 35.8171 0.181564C35.6998 0.0652237 35.5408 -9.39964e-05 35.375 0ZM1.25138 40.7595V7.51109H29.4053V35.0961V35.1099V35.1233V40.7588L1.25138 40.7595ZM30.6552 34.4896H34.75V1.24051H6.5976V6.27058H30.0302C30.3753 6.27078 30.655 6.54836 30.6552 6.89084V34.4896Z" fill="#FF7E00"/>
<path d="M25.364 11H17.636C17.2847 11 17 11.2239 17 11.5C17 11.7761 17.2847 12 17.636 12H25.364C25.7153 12 26 11.7761 26 11.5C26 11.2239 25.7153 11 25.364 11Z" fill="#FF7E00"/>
<path d="M25.3689 17H4.63115C4.28257 17 4 17.2239 4 17.5C4 17.7761 4.28257 18 4.63115 18H25.3689C25.7174 18 26 17.7761 26 17.5C26 17.2239 25.7174 17 25.3689 17V17Z" fill="#FF7E00"/>
<path d="M25.3689 21H4.63115C4.40566 21 4.1973 21.0953 4.08456 21.25C3.97181 21.4047 3.97181 21.5953 4.08456 21.75C4.1973 21.9047 4.40566 22 4.63115 22H25.3689C25.7174 22 26 21.7761 26 21.5C26 21.2239 25.7174 21 25.3689 21V21Z" fill="#FF7E00"/>
<path d="M25.3689 24H4.63115C4.28257 24 4 24.2239 4 24.5C4 24.7761 4.28257 25 4.63115 25H25.3689C25.7174 25 26 24.7761 26 24.5C26 24.2239 25.7174 24 25.3689 24Z" fill="#FF7E00"/>
<path d="M25.3689 27H4.63115C4.28257 27 4 27.2239 4 27.5C4 27.7761 4.28257 28 4.63115 28H25.3689C25.7174 28 26 27.7761 26 27.5C26 27.2239 25.7174 27 25.3689 27Z" fill="#FF7E00"/>
<path d="M25.3689 30H4.63115C4.28257 30 4 30.2239 4 30.5C4 30.7761 4.28257 31 4.63115 31H25.3689C25.7174 31 26 30.7761 26 30.5C26 30.2239 25.7174 30 25.3689 30Z" fill="#FF7E00"/>
<path d="M25.3689 33H4.63115C4.28257 33 4 33.2239 4 33.5C4 33.7761 4.28257 34 4.63115 34H25.3689C25.7174 34 26 33.7761 26 33.5C26 33.2239 25.7174 33 25.3689 33Z" fill="#FF7E00"/>
<path d="M21.3793 36H8.62072C8.27791 36 8 36.2239 8 36.5C8 36.7761 8.27791 37 8.62072 37H21.3793C21.7221 37 22 36.7761 22 36.5C22 36.2239 21.7221 36 21.3793 36Z" fill="#FF7E00"/>
</svg>
