<svg width="45" height="36" viewBox="0 0 45 36" fill="none" xmlns="http://www.w3.org/2000/svg">
<path d="M5.32935 25.1571L5.32935 3.45404C5.32935 2.34947 6.22478 1.45404 7.32935 1.45404H37.9141C39.0187 1.45404 39.9141 2.34947 39.9141 3.45404V25.461" stroke="#FF7E00"/>
<path fill-rule="evenodd" clip-rule="evenodd" d="M4.77107 25.4367C4.95735 25.1635 5.26663 25 5.5973 25H39.1251C39.4557 25 39.765 25.1635 39.9513 25.4367L43.7224 30.9676H1L4.77107 25.4367Z" stroke="#FF7E00" stroke-linejoin="round"/>
<path d="M1 31H43.7224V32.9784C43.7224 34.0829 42.8269 34.9784 41.7224 34.9784H3C1.89543 34.9784 1 34.0829 1 32.9784V31Z" stroke="#FF7E00" stroke-linecap="round" stroke-linejoin="round"/>
<path fill-rule="evenodd" clip-rule="evenodd" d="M11.4324 13.6264C11.4324 13.4998 11.4889 13.3909 11.6031 13.2986L16.2985 10.16C16.3556 10.1252 16.4068 10.1081 16.4526 10.1081C16.5323 10.1081 16.6061 10.1366 16.674 10.1942C16.7424 10.2518 16.7769 10.3208 16.7769 10.4011C16.7769 10.5163 16.7257 10.6024 16.6233 10.66L12.2177 13.6264L16.6233 16.5757C16.7257 16.6327 16.7769 16.7194 16.7769 16.834C16.7769 16.915 16.7424 16.9839 16.674 17.041C16.6061 17.0985 16.5323 17.1276 16.4526 17.1276C16.4068 17.1276 16.3556 17.1099 16.2985 17.0757L11.6031 13.9366C11.4889 13.8676 11.4324 13.7644 11.4324 13.6264Z" fill="#73778A"/>
<path d="M11.4324 13.6264C11.4324 13.4998 11.4889 13.3909 11.6031 13.2986L16.2985 10.16C16.3556 10.1252 16.4068 10.1081 16.4526 10.1081C16.5323 10.1081 16.6061 10.1366 16.674 10.1942C16.7424 10.2518 16.7769 10.3208 16.7769 10.4011C16.7769 10.5163 16.7257 10.6024 16.6233 10.66L12.2177 13.6264L16.6233 16.5757C16.7257 16.6327 16.7769 16.7194 16.7769 16.834C16.7769 16.915 16.7424 16.9839 16.674 17.041C16.6061 17.0985 16.5323 17.1276 16.4526 17.1276C16.4068 17.1276 16.3556 17.1099 16.2985 17.0757L11.6031 13.9366C11.4889 13.8676 11.4324 13.7644 11.4324 13.6264" stroke="#F7931A" stroke-width="0.5"/>
<path fill-rule="evenodd" clip-rule="evenodd" d="M18.5583 21.3029C18.5583 21.2252 18.57 21.1667 18.5922 21.1282L25.1637 6.43414C25.2082 6.3307 25.2815 6.2793 25.3821 6.2793C25.4488 6.2793 25.516 6.31528 25.5838 6.38595C25.651 6.45791 25.6843 6.54465 25.6843 6.64809C25.6843 6.71363 25.6677 6.7843 25.6338 6.86205L19.1134 21.3807C19.0567 21.5233 18.9623 21.5946 18.8273 21.5946C18.6484 21.5946 18.5583 21.4976 18.5583 21.3029Z" fill="#73778A"/>
<path d="M18.5583 21.3029C18.5583 21.2252 18.57 21.1667 18.5922 21.1282L25.1637 6.43414C25.2082 6.3307 25.2815 6.2793 25.3821 6.2793C25.4488 6.2793 25.516 6.31528 25.5838 6.38595C25.651 6.45791 25.6843 6.54465 25.6843 6.64809C25.6843 6.71363 25.6677 6.7843 25.6338 6.86205L19.1134 21.3807C19.0567 21.5233 18.9623 21.5946 18.8273 21.5946C18.6484 21.5946 18.5583 21.4976 18.5583 21.3029" stroke="#F7931A" stroke-width="0.5"/>
<path fill-rule="evenodd" clip-rule="evenodd" d="M27.4658 16.834C27.4658 16.7194 27.517 16.6327 27.6193 16.5757L32.025 13.6264L27.6193 10.66C27.517 10.6024 27.4658 10.5163 27.4658 10.4011C27.4658 10.3208 27.4998 10.2518 27.5676 10.1942C27.636 10.1366 27.7104 10.1081 27.7901 10.1081C27.8472 10.1081 27.8984 10.1252 27.9441 10.16L32.639 13.2986C32.7527 13.3909 32.8103 13.4998 32.8103 13.6264C32.8103 13.7644 32.7527 13.8676 32.639 13.9366L27.9441 17.0757C27.8984 17.1099 27.8472 17.1276 27.7901 17.1276C27.7104 17.1276 27.636 17.0985 27.5676 17.041C27.4998 16.9839 27.4658 16.915 27.4658 16.834Z" fill="#73778A"/>
<path d="M27.4658 16.834C27.4658 16.7194 27.517 16.6327 27.6193 16.5757L32.025 13.6264L27.6193 10.66C27.517 10.6024 27.4658 10.5163 27.4658 10.4011C27.4658 10.3208 27.4998 10.2518 27.5676 10.1942C27.636 10.1366 27.7104 10.1081 27.7901 10.1081C27.8472 10.1081 27.8984 10.1252 27.9441 10.16L32.639 13.2986C32.7527 13.3909 32.8103 13.4998 32.8103 13.6264C32.8103 13.7644 32.7527 13.8676 32.639 13.9366L27.9441 17.0757C27.8984 17.1099 27.8472 17.1276 27.7901 17.1276C27.7104 17.1276 27.636 17.0985 27.5676 17.041C27.4998 16.9839 27.4658 16.915 27.4658 16.834" stroke="#F7931A" stroke-width="0.5"/>
</svg>
