<svg width="48" height="42" viewBox="0 0 48 42" fill="none" xmlns="http://www.w3.org/2000/svg">
<path fill-rule="evenodd" clip-rule="evenodd" d="M14.5 28C21.9558 28 28 21.9558 28 14.5C28 7.04416 21.9558 1 14.5 1C7.04416 1 1 7.04416 1 14.5C1 21.9558 7.04416 28 14.5 28Z" stroke="#FF7E00"/>
<path fill-rule="evenodd" clip-rule="evenodd" d="M14.5 24C19.7467 24 24 19.7467 24 14.5C24 9.25329 19.7467 5 14.5 5C9.25329 5 5 9.25329 5 14.5C5 19.7467 9.25329 24 14.5 24Z" stroke="#FF7E00"/>
<path d="M26.4585 20.8923L44.7587 33.9261C45.8164 34.8137 45.9544 36.3905 45.0669 37.4482C44.1794 38.5059 42.6025 38.6439 41.5448 37.7564L23.2446 24.7225" stroke="#FF7E00"/>
</svg>
