<svg width="1600" height="200" viewBox="0 0 1600 200" fill="none" xmlns="http://www.w3.org/2000/svg">
<g opacity="0.4">
<g opacity="0.5">
<path d="M0 20L52 49L183 1L262 94L395 14L480 119" stroke="#979797"/>
<path d="M263 96L56 49" stroke="#979797"/>
<path d="M395 14L182 1" stroke="#979797"/>
<path d="M835 172L1174 121L1389 45L1473 161" stroke="#979797"/>
<path d="M1583 17L1387 45L1200 1L1173 120L1147 1L835 172" stroke="#979797"/>
<path d="M761 1L665 51L835 172" stroke="#979797"/>
<path d="M665 51L393 15" stroke="#979797"/>
</g>
<path fill-rule="evenodd" clip-rule="evenodd" d="M393.5 18C395.433 18 397 16.433 397 14.5C397 12.567 395.433 11 393.5 11C391.567 11 390 12.567 390 14.5C390 16.433 391.567 18 393.5 18Z" fill="#FF7E00"/>
<path fill-rule="evenodd" clip-rule="evenodd" d="M393.5 27C400.404 27 406 21.4036 406 14.5C406 7.59644 400.404 2 393.5 2C386.596 2 381 7.59644 381 14.5C381 21.4036 386.596 27 393.5 27Z" stroke="#FF7E00"/>
<path fill-rule="evenodd" clip-rule="evenodd" d="M262.5 101C265.538 101 268 98.5376 268 95.5C268 92.4624 265.538 90 262.5 90C259.462 90 257 92.4624 257 95.5C257 98.5376 259.462 101 262.5 101Z" fill="#FF7E00"/>
<path fill-rule="evenodd" clip-rule="evenodd" d="M262.5 113C272.165 113 280 105.165 280 95.5C280 85.835 272.165 78 262.5 78C252.835 78 245 85.835 245 95.5C245 105.165 252.835 113 262.5 113Z" stroke="#FF7E00"/>
<path fill-rule="evenodd" clip-rule="evenodd" d="M1386.5 51C1389.54 51 1392 48.5376 1392 45.5C1392 42.4624 1389.54 40 1386.5 40C1383.46 40 1381 42.4624 1381 45.5C1381 48.5376 1383.46 51 1386.5 51Z" fill="#FF7E00"/>
<path fill-rule="evenodd" clip-rule="evenodd" d="M1386.5 63C1396.16 63 1404 55.165 1404 45.5C1404 35.835 1396.16 28 1386.5 28C1376.84 28 1369 35.835 1369 45.5C1369 55.165 1376.84 63 1386.5 63Z" stroke="#FF7E00"/>
<path fill-rule="evenodd" clip-rule="evenodd" d="M1173.5 125C1175.43 125 1177 123.433 1177 121.5C1177 119.567 1175.43 118 1173.5 118C1171.57 118 1170 119.567 1170 121.5C1170 123.433 1171.57 125 1173.5 125Z" fill="#C4C4C4"/>
<path fill-rule="evenodd" clip-rule="evenodd" d="M1173.5 134C1180.4 134 1186 128.404 1186 121.5C1186 114.596 1180.4 109 1173.5 109C1166.6 109 1161 114.596 1161 121.5C1161 128.404 1166.6 134 1173.5 134Z" stroke="#CACACA"/>
<g opacity="0.7">
<path fill-rule="evenodd" clip-rule="evenodd" d="M1473.5 165C1475.43 165 1477 163.433 1477 161.5C1477 159.567 1475.43 158 1473.5 158C1471.57 158 1470 159.567 1470 161.5C1470 163.433 1471.57 165 1473.5 165Z" fill="#C4C4C4"/>
<path fill-rule="evenodd" clip-rule="evenodd" d="M1473.5 174C1480.4 174 1486 168.404 1486 161.5C1486 154.596 1480.4 149 1473.5 149C1466.6 149 1461 154.596 1461 161.5C1461 168.404 1466.6 174 1473.5 174Z" stroke="#CACACA"/>
</g>
<path fill-rule="evenodd" clip-rule="evenodd" d="M54.5 53C56.433 53 58 51.433 58 49.5C58 47.567 56.433 46 54.5 46C52.567 46 51 47.567 51 49.5C51 51.433 52.567 53 54.5 53Z" fill="#C4C4C4"/>
<path fill-rule="evenodd" clip-rule="evenodd" d="M54.5 62C61.4036 62 67 56.4036 67 49.5C67 42.5964 61.4036 37 54.5 37C47.5964 37 42 42.5964 42 49.5C42 56.4036 47.5964 62 54.5 62Z" stroke="#CACACA"/>
<path fill-rule="evenodd" clip-rule="evenodd" d="M664.5 53C666.433 53 668 51.433 668 49.5C668 47.567 666.433 46 664.5 46C662.567 46 661 47.567 661 49.5C661 51.433 662.567 53 664.5 53Z" fill="#C4C4C4"/>
<path fill-rule="evenodd" clip-rule="evenodd" d="M664.5 62C671.404 62 677 56.4036 677 49.5C677 42.5964 671.404 37 664.5 37C657.596 37 652 42.5964 652 49.5C652 56.4036 657.596 62 664.5 62Z" stroke="#CACACA"/>
<path fill-rule="evenodd" clip-rule="evenodd" d="M481.5 124C483.433 124 485 122.433 485 120.5C485 118.567 483.433 117 481.5 117C479.567 117 478 118.567 478 120.5C478 122.433 479.567 124 481.5 124Z" fill="#FF7E00"/>
<path fill-rule="evenodd" clip-rule="evenodd" d="M481.5 133C488.404 133 494 127.404 494 120.5C494 113.596 488.404 108 481.5 108C474.596 108 469 113.596 469 120.5C469 127.404 474.596 133 481.5 133Z" stroke="#FF7E00"/>
<path fill-rule="evenodd" clip-rule="evenodd" d="M1581.5 19C1583.43 19 1585 17.433 1585 15.5C1585 13.567 1583.43 12 1581.5 12C1579.57 12 1578 13.567 1578 15.5C1578 17.433 1579.57 19 1581.5 19Z" fill="#FF7E00"/>
<path fill-rule="evenodd" clip-rule="evenodd" d="M1581.5 28C1588.4 28 1594 22.4036 1594 15.5C1594 8.59644 1588.4 3 1581.5 3C1574.6 3 1569 8.59644 1569 15.5C1569 22.4036 1574.6 28 1581.5 28Z" stroke="#FF7E00"/>
<path fill-rule="evenodd" clip-rule="evenodd" d="M835.5 175C837.433 175 839 173.433 839 171.5C839 169.567 837.433 168 835.5 168C833.567 168 832 169.567 832 171.5C832 173.433 833.567 175 835.5 175Z" fill="#FF7E00"/>
<path fill-rule="evenodd" clip-rule="evenodd" d="M835.5 184C842.404 184 848 178.404 848 171.5C848 164.596 842.404 159 835.5 159C828.596 159 823 164.596 823 171.5C823 178.404 828.596 184 835.5 184Z" stroke="#FF7E00"/>
</g>
</svg>
