<svg width="112" height="25" viewBox="0 0 112 25" fill="none" xmlns="http://www.w3.org/2000/svg">
<path d="M23.0219 14.903C21.481 21.0837 15.2209 24.8452 9.03946 23.3039C2.86052 21.763 -0.901002 15.5026 0.640669 9.32217C2.1809 3.1407 8.44096 -0.621174 14.6206 0.919776C20.8017 2.46073 24.5629 8.72187 23.0219 14.903Z" fill="#F7931A"/>
<path fill-rule="evenodd" clip-rule="evenodd" d="M16.9162 10.4684C17.1458 8.93317 15.9769 8.10789 14.3787 7.55735L14.8971 5.47775L13.6313 5.16228L13.1265 7.18707C12.7937 7.10415 12.4519 7.02591 12.1123 6.9484L12.6207 4.91026L11.3555 4.59479L10.8367 6.67366C10.5613 6.61093 10.2909 6.54892 10.0284 6.48366L10.0298 6.47717L8.28409 6.04128L7.94735 7.3933C7.94735 7.3933 8.88655 7.60854 8.86673 7.62188C9.37941 7.74988 9.47207 8.08914 9.45657 8.35811L8.866 10.7272C8.90134 10.7362 8.94713 10.7492 8.9976 10.7694L8.9547 10.7587C8.92535 10.7513 8.89492 10.7437 8.86384 10.7362L8.03604 14.055C7.97331 14.2108 7.81431 14.4444 7.45593 14.3557C7.46855 14.3741 6.53583 14.126 6.53583 14.126L5.90741 15.575L7.55472 15.9857C7.73864 16.0318 7.92035 16.0792 8.10017 16.1261L8.10028 16.1261C8.22004 16.1573 8.33897 16.1883 8.45715 16.2186L7.93329 18.322L9.1977 18.6375L9.71652 16.5564C10.0619 16.6502 10.3972 16.7367 10.7253 16.8182L10.2083 18.8895L11.4742 19.205L11.998 17.1055C14.1566 17.514 15.7797 17.3493 16.463 15.3969C17.0135 13.825 16.4355 12.9182 15.2998 12.3269C16.1269 12.1362 16.7499 11.5922 16.9162 10.4684ZM14.0239 14.5241C13.665 15.9663 11.4076 15.37 10.3747 15.0972L10.3746 15.0972C10.2817 15.0727 10.1987 15.0507 10.1279 15.0332L10.823 12.2465C10.9093 12.2681 11.0146 12.2917 11.134 12.3185C12.2023 12.5582 14.3917 13.0495 14.0239 14.5241ZM11.3487 11.0253C12.2098 11.2551 14.0882 11.7564 14.4154 10.4456C14.7496 9.1049 12.9239 8.70074 12.0323 8.50335C11.932 8.48115 11.8435 8.46157 11.7712 8.44356L11.141 10.9709C11.2005 10.9858 11.2704 11.0044 11.3487 11.0253Z" fill="white"/>
<path fill-rule="evenodd" clip-rule="evenodd" d="M36.5267 8.05347C35.8474 7.7243 35.0391 7.55665 34.1035 7.55665C33.6564 7.55665 33.2382 7.60712 32.8484 7.70411C32.459 7.80253 32.0689 7.93774 31.6817 8.11224L33.4906 0.579468L28.9658 1.28072L23.9139 22.5079C24.4788 22.7812 25.0788 22.9964 25.7105 23.15C26.3425 23.3065 26.941 23.4233 27.507 23.5023C28.0695 23.5783 28.5717 23.6234 29.0087 23.6324C29.4457 23.6414 29.755 23.6465 29.9309 23.6465C31.2916 23.6465 32.5589 23.3883 33.7245 22.872C34.892 22.3561 35.9044 21.6577 36.7617 20.7719C37.6198 19.885 38.2944 18.8452 38.7916 17.6464C39.2888 16.4494 39.535 15.1796 39.535 13.8355C39.535 12.9604 39.4283 12.1431 39.2156 11.3827C39.0014 10.6245 38.6697 9.96289 38.2241 9.39684C37.7723 8.83368 37.2092 8.38589 36.5267 8.05347ZM32.2348 19.5601C31.6316 19.8893 30.9895 20.0569 30.3081 20.0569C30.1895 20.0569 30.0836 20.0568 29.9892 20.0567C29.9134 20.0567 29.845 20.0566 29.7835 20.0566C29.6454 20.0566 29.5311 20.0508 29.4312 20.0396C29.3368 20.0299 29.2419 20.0158 29.1561 19.996C29.0685 19.9776 28.9658 19.9582 28.8497 19.9376L30.7757 11.9379C31.1279 11.6282 31.5209 11.4224 31.9601 11.3232C32.3978 11.2298 32.7507 11.1776 33.0247 11.1776C33.8608 11.1776 34.4366 11.4415 34.7478 11.9661C35.0589 12.4928 35.215 13.2215 35.215 14.1556C35.215 14.916 35.0874 15.6468 34.835 16.3473C34.5826 17.0479 34.2365 17.6749 33.7992 18.2315C33.3618 18.7857 32.8398 19.2306 32.2348 19.5601Z" fill="white"/>
<path fill-rule="evenodd" clip-rule="evenodd" d="M44.6962 5.46979C45.1814 5.82961 45.7284 6.00916 46.3316 6.00916C46.7397 6.00916 47.1226 5.93453 47.4842 5.77697C47.8426 5.62086 48.1617 5.41247 48.4324 5.15035C48.7057 4.88644 48.9239 4.57601 49.0886 4.21547C49.2545 3.85493 49.337 3.4706 49.337 3.06102C49.337 2.323 49.0929 1.77245 48.6077 1.41083C48.1206 1.05101 47.5765 0.87146 46.9737 0.87146C46.5641 0.87146 46.1798 0.948976 45.8185 1.10401C45.4594 1.26156 45.1432 1.47068 44.8703 1.73243C44.597 1.99635 44.3789 2.30677 44.212 2.66731C44.0475 3.02857 43.9646 3.41147 43.9646 3.8196C43.9646 4.56159 44.2069 5.11214 44.6962 5.46979ZM39.9067 23.2383H44.2285L47.9079 7.88036H43.5565L39.9067 23.2383Z" fill="white"/>
<path d="M51.6946 4.05471L56.2212 3.35345L55.1097 7.8804H59.9575L59.0821 11.4418H54.2635L52.9799 16.8139C52.8617 17.2617 52.7946 17.6799 52.7759 18.0686C52.7546 18.459 52.804 18.7943 52.9208 19.0766C53.0369 19.3596 53.2457 19.5778 53.5485 19.7321C53.8499 19.8889 54.2815 19.9679 54.8475 19.9679C55.3137 19.9679 55.768 19.9235 56.2071 19.8356C56.6438 19.749 57.0861 19.6286 57.5339 19.4711L57.8563 22.801C57.2722 23.0152 56.6398 23.1994 55.9584 23.3544C55.2759 23.5116 54.4679 23.5873 53.5341 23.5873C52.1914 23.5873 51.1506 23.388 50.4089 22.991C49.6684 22.5912 49.1449 22.045 48.8316 21.3534C48.5226 20.6644 48.3845 19.8702 48.4231 18.9753C48.4631 18.0783 48.5983 17.1355 48.8316 16.1425L51.6946 4.05471Z" fill="white"/>
<path d="M59.7668 17.1073C59.7668 15.7845 59.9809 14.537 60.4089 13.3692C60.8361 12.2004 61.4516 11.1782 62.2502 10.3011C63.0459 9.42818 64.0154 8.73667 65.1565 8.22902C66.2922 7.72427 67.5638 7.46973 68.9653 7.46973C69.8424 7.46973 70.6259 7.55265 71.3153 7.71886C72.0075 7.88651 72.6337 8.1032 73.2002 8.37504L71.7097 11.7641C71.3203 11.6062 70.9161 11.467 70.4983 11.3408C70.08 11.2121 69.5695 11.1501 68.9656 11.1501C67.5231 11.1501 66.3827 11.6473 65.534 12.6384C64.6885 13.6303 64.2627 14.9654 64.2627 16.6401C64.2627 17.6326 64.4769 18.4352 64.9066 19.0492C65.3342 19.6632 66.1242 19.9686 67.2711 19.9686C67.8371 19.9686 68.3833 19.9095 68.9065 19.7941C69.4336 19.6773 69.8991 19.5302 70.309 19.3564L70.6317 22.8306C70.0851 23.0425 69.4823 23.234 68.821 23.4016C68.1584 23.5635 67.3695 23.6475 66.4548 23.6475C65.2474 23.6475 64.2252 23.4709 63.3891 23.1229C62.5527 22.7696 61.8615 22.3006 61.3171 21.7064C60.7698 21.1108 60.3768 20.4153 60.1338 19.6171C59.8908 18.8195 59.7668 17.9816 59.7668 17.1073H59.7668Z" fill="white"/>
<path fill-rule="evenodd" clip-rule="evenodd" d="M76.2773 23.1785C77.0374 23.4896 77.9333 23.6468 78.9648 23.6468C80.3861 23.6468 81.6379 23.349 82.7173 22.7555C83.7982 22.1621 84.6981 21.3981 85.4178 20.4647C86.1388 19.5291 86.6851 18.4763 87.0532 17.3121C87.4209 16.1422 87.6062 14.9726 87.6062 13.8062C87.6062 12.8728 87.4808 12.0194 87.2266 11.2521C86.9742 10.482 86.5989 9.81755 86.105 9.25151C85.6056 8.68834 84.9739 8.24812 84.2071 7.9377C83.4366 7.62655 82.5453 7.46899 81.5326 7.46899C80.1524 7.46899 78.9237 7.7668 77.8554 8.35881C76.7861 8.95478 75.8779 9.71913 75.1416 10.654C74.3997 11.5874 73.839 12.6377 73.4612 13.8066C73.0815 14.9729 72.8937 16.1425 72.8937 17.3125C72.8937 18.2452 73.0163 19.0964 73.2712 19.8651C73.5261 20.6341 73.8981 21.3015 74.3953 21.8647C74.8918 22.4307 75.5195 22.8673 76.2773 23.1785ZM79.4328 11.7032C79.9177 11.3358 80.4841 11.1498 81.1248 11.1498C81.9422 11.1498 82.5075 11.423 82.819 11.9664C83.1309 12.5119 83.2873 13.2726 83.2873 14.2446C83.2873 14.8475 83.2041 15.4867 83.0407 16.1569C82.8738 16.829 82.6247 17.448 82.2937 18.0112C81.9616 18.5758 81.5524 19.0434 81.0686 19.4123C80.5808 19.7836 80.0172 19.9682 79.3744 19.9682C78.5563 19.9682 77.9935 19.6949 77.6802 19.1516C77.3712 18.6054 77.214 17.8464 77.214 16.8719C77.214 16.268 77.2952 15.6323 77.4606 14.9599C77.6276 14.289 77.8745 13.6717 78.2077 13.1057C78.5372 12.5422 78.9461 12.0749 79.4328 11.7032Z" fill="white"/>
<path fill-rule="evenodd" clip-rule="evenodd" d="M92.7829 5.46979C93.2674 5.82961 93.814 6.00916 94.4168 6.00916C94.8271 6.00916 95.2107 5.93453 95.5727 5.77697C95.9318 5.62086 96.2469 5.41247 96.5209 5.15035C96.7931 4.88644 97.0127 4.57601 97.176 4.21547C97.3394 3.85493 97.4266 3.4706 97.4266 3.06102C97.4266 2.323 97.1811 1.77245 96.6947 1.41083C96.2087 1.05101 95.6629 0.87146 95.0586 0.87146C94.6505 0.87146 94.2661 0.948976 93.907 1.10401C93.5486 1.26156 93.2296 1.47068 92.9581 1.73243C92.6848 1.99635 92.4652 2.30677 92.3005 2.66731C92.1357 3.02857 92.0517 3.41147 92.0517 3.8196C92.0517 4.56159 92.2961 5.11214 92.7829 5.46979ZM87.9916 23.2383H92.317L95.9949 7.88036H91.6414L87.9916 23.2383Z" fill="white"/>
<path d="M99.1079 8.58019C99.4359 8.48428 99.8023 8.36891 100.201 8.24344C100.6 8.11798 101.047 8.00116 101.546 7.89588C102.04 7.78736 102.597 7.69939 103.209 7.63125C103.822 7.56166 104.52 7.52777 105.295 7.52777C107.575 7.52777 109.146 8.19153 110.013 9.51507C110.88 10.8386 111.03 12.65 110.468 14.9459L108.48 23.2383H104.129L106.056 15.1204C106.174 14.6135 106.266 14.1235 106.334 13.6447C106.403 13.1702 106.399 12.752 106.319 12.39C106.242 12.0324 106.061 11.7396 105.78 11.5128C105.495 11.2896 105.064 11.1775 104.48 11.1775C103.916 11.1775 103.343 11.2381 102.758 11.3549L99.9248 23.238H95.5728L99.1079 8.58019Z" fill="white"/>
</svg>
