<svg width="16" height="16" viewBox="0 0 16 16" fill="none" xmlns="http://www.w3.org/2000/svg">
<path fill-rule="evenodd" clip-rule="evenodd" d="M10.424 9.4555L14.989 14.0205C15.0024 14.0339 15.0131 14.0498 15.0203 14.0673C15.0276 14.0848 15.0312 14.1035 15.0312 14.1225C15.0312 14.1414 15.0276 14.1601 15.0203 14.1776C15.0131 14.1951 15.0024 14.211 14.989 14.2244L14.2226 14.9891C14.2092 15.0025 14.1933 15.0131 14.1758 15.0203C14.1583 15.0276 14.1396 15.0313 14.1207 15.0313C14.1018 15.0313 14.0829 15.0276 14.0654 15.0203C14.0479 15.0131 14.0321 15.0025 14.0188 14.9891L9.45365 10.4258C8.53785 11.1324 7.41985 11.5156 6.24215 11.5156C4.83235 11.5156 3.50875 10.9672 2.51385 9.9705C1.51885 8.9756 0.96875 7.6502 0.96875 6.2422C0.96875 4.8324 1.51715 3.5088 2.51385 2.5139C3.50875 1.5189 4.83415 0.968796 6.24215 0.968796C7.65015 0.968796 8.97555 1.5172 9.97045 2.5139C10.9654 3.5105 11.5155 4.8324 11.5155 6.2422C11.5155 7.4199 11.1323 8.5396 10.424 9.4555ZM6.24215 10.1797C7.29335 10.1797 8.28125 9.7701 9.02655 9.0266C9.77005 8.283 10.1797 7.2934 10.1797 6.2422C10.1797 5.191 9.77005 4.2031 9.02655 3.4578C8.28295 2.7125 7.29335 2.3047 6.24215 2.3047C5.19095 2.3047 4.20305 2.7143 3.45775 3.4578C2.71425 4.2014 2.30465 5.191 2.30465 6.2422C2.30465 7.2934 2.71425 8.2813 3.45775 9.0266C4.20305 9.7701 5.19095 10.1797 6.24215 10.1797Z" fill="#808C97"/>
</svg>
